<svg xmlns="http://www.w3.org/2000/svg" viewBox="0 0 200 200" width="100%" height="100%">
  <defs>
    <linearGradient id="chickBg" x1="0%" y1="0%" x2="100%" y2="100%">
      <stop offset="0%" stop-color="#fefce8"/>
      <stop offset="100%" stop-color="#fef08a"/>
    </linearGradient>
  </defs>
  <circle cx="100" cy="100" r="95" fill="url(#chickBg)"/>
  <!-- Head Tuft -->
  <path d="M100 50 Q105 35 115 45 Q105 45 100 55" stroke="#eab308" stroke-width="4" fill="none" stroke-linecap="round"/>
  <!-- Body -->
  <circle cx="100" cy="110" r="50" fill="#facc15"/>
  <!-- Wings -->
  <ellipse cx="60" cy="115" rx="12" ry="20" transform="rotate(-15 60 115)" fill="#eab308"/>
  <ellipse cx="140" cy="115" rx="12" ry="20" transform="rotate(15 140 115)" fill="#eab308"/>
  <!-- Cheeks -->
  <circle cx="75" cy="105" r="8" fill="#fca5a5" fill-opacity="0.8"/>
  <circle cx="125" cy="105" r="8" fill="#fca5a5" fill-opacity="0.8"/>
  <!-- Eyes -->
  <circle cx="85" cy="98" r="6" fill="#1e293b"/>
  <circle cx="83" cy="96" r="2" fill="#ffffff"/>
  <circle cx="115" cy="98" r="6" fill="#1e293b"/>
  <circle cx="113" cy="96" r="2" fill="#ffffff"/>
  <!-- Beak -->
  <polygon points="92,108 108,108 100,122" fill="#ea580c"/>
</svg>
